<svg xmlns="http://www.w3.org/2000/svg" viewBox="2.008 0.998 116.994 75.002" fill="none">
<g clip-path="url(#clip0_246_26751)">
<g clip-path="url(#clip1_246_26751)">
<path d="M68.246 38.28C68.246 50.2947 64.1175 60.0342 59.0234 60.0342C53.9293 60.0342 49.8008 50.2947 49.8008 38.28C49.8008 26.2654 53.9293 16.5259 59.0234 16.5259C62.0693 16.5259 64.7694 20.0067 66.4472 25.3753C67.5772 28.9865 68.2442 33.45 68.2442 38.2819L68.246 38.28Z" fill="#EB5347" />
<path d="M116.052 23.9011C114.163 19.4358 111.461 15.4258 108.018 11.9828C104.576 8.53981 100.566 5.83755 96.1012 3.94786C91.4757 1.99014 86.5649 0.998047 81.5049 0.998047C76.4448 0.998047 71.534 1.99014 66.9085 3.94786C62.4436 5.83755 58.4341 8.53981 54.9915 11.9828C51.5488 15.4258 48.8468 19.4358 46.9573 23.9011C45.0017 28.5271 44.0078 33.4384 44.0078 38.499C44.0078 43.5596 44.9998 48.4709 46.9573 53.0969C48.8468 57.5622 51.5488 61.5721 54.9915 65.0152C58.4341 68.4582 62.4436 71.1604 66.9085 73.0501C71.534 75.0078 76.4448 75.9999 81.5049 75.9999C86.5649 75.9999 91.4757 75.0078 96.1012 73.0501C100.566 71.1604 104.576 68.4582 108.018 65.0152C111.461 61.5721 114.163 57.5622 116.052 53.0969C118.008 48.4709 119.002 43.5596 119.002 38.499C119.002 33.4384 118.01 28.5271 116.052 23.9011ZM109.5 38.8419C109.5 46.4118 106.552 53.529 101.2 58.8819C95.8474 64.2347 88.731 67.183 81.1619 67.183C73.5928 67.183 66.4763 64.2347 61.124 58.8819C55.7717 53.529 52.8237 46.4118 52.8237 38.8419C52.8237 31.272 55.7717 24.1549 61.124 18.802C66.4763 13.4491 73.5928 10.5008 81.1619 10.5008C88.731 10.5008 95.8474 13.4491 101.2 18.802C106.552 24.1549 109.5 31.272 109.5 38.8419Z" fill="black" />
<path d="M74.0524 23.9011C72.1629 19.4358 69.4609 15.4258 66.0183 11.9828C62.5756 8.53981 58.5661 5.83755 54.1012 3.94786C49.4757 1.99014 44.5649 0.998047 39.5049 0.998047C34.4448 0.998047 29.534 1.99014 24.9085 3.94786C20.4436 5.83755 16.4341 8.53981 12.9915 11.9828C9.54879 15.4258 6.84681 19.4358 4.95732 23.9011C3.00169 28.5271 2.00781 33.4384 2.00781 38.499C2.00781 43.5596 2.9998 48.4709 4.95732 53.0969C6.84681 57.5622 9.54879 61.5721 12.9915 65.0152C16.4341 68.4582 20.4436 71.1604 24.9085 73.0501C29.534 75.0078 34.4448 75.9999 39.5049 75.9999C44.5649 75.9999 49.4757 75.0078 54.1012 73.0501C58.5661 71.1604 62.5756 68.4582 66.0183 65.0152C69.4609 61.5721 72.1629 57.5622 74.0524 53.0969C76.008 48.4709 77.0019 43.5596 77.0019 38.499C77.0019 33.4384 76.0099 28.5271 74.0524 23.9011ZM67.5 38.8419C67.5 46.4118 64.552 53.529 59.1997 58.8819C53.8474 64.2347 46.731 67.183 39.1619 67.183C31.5928 67.183 24.4763 64.2347 19.124 58.8819C13.7717 53.529 10.8237 46.4118 10.8237 38.8419C10.8237 31.272 13.7717 24.1549 19.124 18.802C24.4763 13.4491 31.5928 10.5008 39.1619 10.5008C46.731 10.5008 53.8474 13.4491 59.1997 18.802C64.552 24.1549 67.5 31.272 67.5 38.8419Z" fill="black" />
</g>
</g>
<defs>
<clipPath id="clip0_246_26751">
<rect width="382" height="76" fill="white" />
</clipPath>
<clipPath id="clip1_246_26751">
<rect width="118" height="76" fill="white" transform="translate(2)" />
</clipPath>
<clipPath id="clip2_246_26751">
<rect width="238" height="73" fill="white" transform="translate(142 1.5)" />
</clipPath>
</defs>
</svg>